<svg xmlns="http://www.w3.org/2000/svg" viewBox="0 0 64 64" width="128" height="128">
<circle cx="32" cy="32" r="30" fill="#2e2716" stroke="#f5c977" stroke-width="2"></circle>
<circle cx="32" cy="33" r="15" fill="none" stroke="#7fb2ff" stroke-width="1.6" opacity="0.55"></circle>
<path d="M22 26 l2 -8 l6 5 z M42 26 l-2 -8 l-6 5 z" fill="#3a3120"></path>
<path d="M22 26 l2 -8 l6 5 z M42 26 l-2 -8 l-6 5 z" fill="none" stroke="#f5c977" stroke-width="1.5"></path>
<circle cx="32" cy="32" r="12" fill="#3a3120"></circle><circle cx="27" cy="30" r="2.2" fill="#5DCAA5"></circle><circle cx="37" cy="30" r="2.2" fill="#5DCAA5"></circle>
<path d="M30 35 l2 2 l2 -2" fill="none" stroke="#f5c977" stroke-width="1.6" stroke-linecap="round"></path>
<path d="M24 37 l-6 1 M24 39 l-6 3 M40 37 l6 1 M40 39 l6 3" stroke="#c7d0e4" stroke-width="1" stroke-linecap="round"></path>
</svg>