<svg xmlns="http://www.w3.org/2000/svg" viewBox="0 0 1180 220" width="1180" height="220">
<rect width="1180" height="220" fill="#05070f"></rect>
<defs><radialGradient id="neb1" cx="30%" cy="18%" r="55%"><stop offset="0%" stop-color="#12474a" stop-opacity="0.55"></stop><stop offset="100%" stop-color="#070b16" stop-opacity="0"></stop></radialGradient><radialGradient id="neb2" cx="82%" cy="88%" r="55%"><stop offset="0%" stop-color="#1b2c5c" stop-opacity="0.5"></stop><stop offset="100%" stop-color="#070b16" stop-opacity="0"></stop></radialGradient></defs>
<rect width="1180" height="220" fill="url(#neb1)"></rect><rect width="1180" height="220" fill="url(#neb2)"></rect>
<circle cx="681.4" cy="205.2" r="0.41" fill="#e8ecf6" opacity="0.46"></circle><circle cx="528.6" cy="80.1" r="1.05" fill="#e8ecf6" opacity="0.77"></circle><circle cx="137.8" cy="62.7" r="1.45" fill="#e8ecf6" opacity="0.64"></circle><circle cx="19.0" cy="142.1" r="1.21" fill="#e8ecf6" opacity="0.27"></circle><circle cx="769.3" cy="79.5" r="0.59" fill="#e8ecf6" opacity="0.36"></circle><circle cx="189.2" cy="116.4" r="0.40" fill="#e8ecf6" opacity="0.48"></circle><circle cx="624.0" cy="70.9" r="1.39" fill="#e8ecf6" opacity="0.56"></circle><circle cx="573.1" cy="119.6" r="0.65" fill="#e8ecf6" opacity="0.79"></circle><circle cx="65.8" cy="186.4" r="0.59" fill="#e8ecf6" opacity="0.66"></circle><circle cx="923.0" cy="138.2" r="0.50" fill="#e8ecf6" opacity="0.47"></circle><circle cx="726.5" cy="127.2" r="0.81" fill="#e8ecf6" opacity="0.54"></circle><circle cx="554.2" cy="199.4" r="0.30" fill="#e8ecf6" opacity="0.31"></circle><circle cx="522.8" cy="50.7" r="0.73" fill="#e8ecf6" opacity="0.42"></circle><circle cx="836.2" cy="28.8" r="0.64" fill="#e8ecf6" opacity="0.70"></circle><circle cx="81.2" cy="82.0" r="0.40" fill="#e8ecf6" opacity="0.51"></circle><circle cx="210.0" cy="175.1" r="0.33" fill="#e8ecf6" opacity="0.21"></circle><circle cx="508.8" cy="191.2" r="0.99" fill="#e8ecf6" opacity="0.41"></circle><circle cx="613.4" cy="200.9" r="0.45" fill="#e8ecf6" opacity="0.40"></circle><circle cx="771.3" cy="217.9" r="1.47" fill="#e8ecf6" opacity="0.26"></circle><circle cx="531.1" cy="100.9" r="1.44" fill="#e8ecf6" opacity="0.74"></circle><circle cx="577.4" cy="42.8" r="1.31" fill="#e8ecf6" opacity="0.41"></circle><circle cx="633.4" cy="106.0" r="1.11" fill="#e8ecf6" opacity="0.36"></circle><circle cx="509.7" cy="124.8" r="1.55" fill="#e8ecf6" opacity="0.18"></circle><circle cx="759.9" cy="194.3" r="1.26" fill="#e8ecf6" opacity="0.33"></circle><circle cx="582.8" cy="205.8" r="1.44" fill="#e8ecf6" opacity="0.29"></circle><circle cx="51.2" cy="189.4" r="0.90" fill="#e8ecf6" opacity="0.46"></circle><circle cx="767.6" cy="142.1" r="1.17" fill="#e8ecf6" opacity="0.58"></circle><circle cx="226.3" cy="4.3" r="0.70" fill="#e8ecf6" opacity="0.48"></circle><circle cx="1122.4" cy="1.3" r="0.33" fill="#e8ecf6" opacity="0.72"></circle><circle cx="207.2" cy="32.8" r="0.59" fill="#e8ecf6" opacity="0.30"></circle><circle cx="350.6" cy="87.9" r="1.07" fill="#e8ecf6" opacity="0.73"></circle><circle cx="969.8" cy="147.4" r="0.74" fill="#e8ecf6" opacity="0.74"></circle><circle cx="1045.2" cy="13.2" r="0.40" fill="#e8ecf6" opacity="0.58"></circle><circle cx="562.2" cy="163.3" r="0.81" fill="#e8ecf6" opacity="0.15"></circle><circle cx="380.3" cy="114.2" r="0.37" fill="#e8ecf6" opacity="0.30"></circle><circle cx="528.5" cy="9.9" r="1.46" fill="#e8ecf6" opacity="0.54"></circle><circle cx="468.0" cy="157.3" r="0.80" fill="#e8ecf6" opacity="0.49"></circle><circle cx="140.3" cy="48.4" r="1.40" fill="#e8ecf6" opacity="0.49"></circle><circle cx="623.6" cy="169.6" r="0.74" fill="#e8ecf6" opacity="0.62"></circle><circle cx="854.4" cy="216.4" r="0.59" fill="#e8ecf6" opacity="0.23"></circle><circle cx="1036.7" cy="96.7" r="0.79" fill="#e8ecf6" opacity="0.43"></circle><circle cx="937.3" cy="198.8" r="0.40" fill="#e8ecf6" opacity="0.61"></circle><circle cx="148.3" cy="47.4" r="1.05" fill="#e8ecf6" opacity="0.45"></circle><circle cx="316.0" cy="185.8" r="0.71" fill="#e8ecf6" opacity="0.57"></circle><circle cx="1076.1" cy="24.4" r="1.32" fill="#e8ecf6" opacity="0.28"></circle><circle cx="316.3" cy="17.0" r="0.46" fill="#e8ecf6" opacity="0.28"></circle><circle cx="1124.9" cy="22.2" r="0.72" fill="#e8ecf6" opacity="0.69"></circle><circle cx="646.8" cy="12.9" r="0.45" fill="#e8ecf6" opacity="0.72"></circle><circle cx="965.0" cy="51.7" r="0.97" fill="#e8ecf6" opacity="0.16"></circle><circle cx="710.2" cy="192.7" r="0.40" fill="#e8ecf6" opacity="0.56"></circle><circle cx="435.9" cy="91.1" r="1.27" fill="#e8ecf6" opacity="0.42"></circle><circle cx="521.1" cy="78.2" r="0.86" fill="#e8ecf6" opacity="0.53"></circle><circle cx="1038.4" cy="184.0" r="0.61" fill="#e8ecf6" opacity="0.63"></circle><circle cx="50.3" cy="185.6" r="0.74" fill="#e8ecf6" opacity="0.45"></circle><circle cx="951.2" cy="23.3" r="0.99" fill="#e8ecf6" opacity="0.50"></circle><circle cx="536.2" cy="142.6" r="0.92" fill="#e8ecf6" opacity="0.67"></circle><circle cx="276.5" cy="3.0" r="1.03" fill="#e8ecf6" opacity="0.61"></circle><circle cx="682.2" cy="33.6" r="0.93" fill="#e8ecf6" opacity="0.53"></circle><circle cx="1170.3" cy="215.3" r="0.89" fill="#e8ecf6" opacity="0.47"></circle><circle cx="721.3" cy="130.0" r="0.40" fill="#e8ecf6" opacity="0.67"></circle><circle cx="500.5" cy="35.7" r="1.54" fill="#e8ecf6" opacity="0.39"></circle><circle cx="187.4" cy="108.8" r="1.38" fill="#e8ecf6" opacity="0.47"></circle><circle cx="991.2" cy="53.4" r="1.03" fill="#e8ecf6" opacity="0.41"></circle><circle cx="12.9" cy="176.3" r="1.09" fill="#e8ecf6" opacity="0.51"></circle><circle cx="734.1" cy="189.7" r="0.68" fill="#e8ecf6" opacity="0.44"></circle><circle cx="693.0" cy="139.7" r="1.18" fill="#e8ecf6" opacity="0.28"></circle><circle cx="6.0" cy="162.1" r="0.45" fill="#e8ecf6" opacity="0.68"></circle><circle cx="57.2" cy="164.7" r="0.93" fill="#e8ecf6" opacity="0.17"></circle><circle cx="613.3" cy="95.7" r="0.41" fill="#e8ecf6" opacity="0.70"></circle><circle cx="86.6" cy="139.8" r="0.48" fill="#e8ecf6" opacity="0.68"></circle><circle cx="123.1" cy="180.4" r="0.42" fill="#e8ecf6" opacity="0.74"></circle><circle cx="358.8" cy="67.9" r="0.89" fill="#e8ecf6" opacity="0.16"></circle><circle cx="1041.2" cy="36.0" r="0.75" fill="#e8ecf6" opacity="0.30"></circle><circle cx="538.7" cy="163.5" r="1.30" fill="#e8ecf6" opacity="0.64"></circle><circle cx="716.1" cy="203.1" r="0.89" fill="#e8ecf6" opacity="0.38"></circle><circle cx="116.6" cy="217.4" r="0.83" fill="#e8ecf6" opacity="0.62"></circle><circle cx="910.7" cy="40.6" r="0.55" fill="#e8ecf6" opacity="0.29"></circle><circle cx="112.0" cy="207.9" r="1.27" fill="#e8ecf6" opacity="0.51"></circle><circle cx="459.3" cy="170.6" r="1.59" fill="#e8ecf6" opacity="0.76"></circle><circle cx="845.5" cy="178.6" r="0.33" fill="#e8ecf6" opacity="0.79"></circle><circle cx="513.0" cy="9.1" r="0.31" fill="#e8ecf6" opacity="0.33"></circle><circle cx="496.2" cy="42.4" r="1.28" fill="#e8ecf6" opacity="0.52"></circle><circle cx="1130.0" cy="63.9" r="1.50" fill="#e8ecf6" opacity="0.62"></circle><circle cx="345.9" cy="193.1" r="1.47" fill="#e8ecf6" opacity="0.27"></circle><circle cx="1013.8" cy="199.3" r="0.79" fill="#e8ecf6" opacity="0.33"></circle><circle cx="190.8" cy="63.3" r="1.03" fill="#e8ecf6" opacity="0.20"></circle><circle cx="397.3" cy="26.9" r="0.41" fill="#e8ecf6" opacity="0.76"></circle><circle cx="438.8" cy="128.1" r="0.96" fill="#e8ecf6" opacity="0.62"></circle><circle cx="1174.6" cy="103.4" r="1.10" fill="#e8ecf6" opacity="0.63"></circle><circle cx="273.9" cy="96.9" r="0.60" fill="#e8ecf6" opacity="0.29"></circle><circle cx="737.8" cy="195.4" r="1.38" fill="#e8ecf6" opacity="0.53"></circle><circle cx="148.0" cy="111.0" r="1.26" fill="#e8ecf6" opacity="0.38"></circle><circle cx="762.4" cy="109.9" r="0.31" fill="#e8ecf6" opacity="0.59"></circle><circle cx="337.6" cy="107.9" r="0.31" fill="#e8ecf6" opacity="0.48"></circle><circle cx="257.6" cy="12.6" r="1.08" fill="#e8ecf6" opacity="0.55"></circle><circle cx="289.4" cy="212.5" r="0.41" fill="#e8ecf6" opacity="0.79"></circle><circle cx="24.8" cy="12.2" r="1.21" fill="#e8ecf6" opacity="0.27"></circle><circle cx="1110.3" cy="175.0" r="1.44" fill="#e8ecf6" opacity="0.25"></circle><circle cx="821.5" cy="111.4" r="0.46" fill="#e8ecf6" opacity="0.68"></circle><circle cx="586.1" cy="55.0" r="1.05" fill="#e8ecf6" opacity="0.32"></circle><circle cx="1132.6" cy="84.7" r="0.59" fill="#e8ecf6" opacity="0.58"></circle><circle cx="785.5" cy="173.3" r="1.33" fill="#e8ecf6" opacity="0.69"></circle><circle cx="448.2" cy="163.1" r="0.69" fill="#e8ecf6" opacity="0.42"></circle><circle cx="1111.1" cy="108.6" r="0.70" fill="#e8ecf6" opacity="0.67"></circle><circle cx="968.0" cy="104.7" r="1.28" fill="#e8ecf6" opacity="0.61"></circle><circle cx="397.6" cy="43.0" r="1.02" fill="#e8ecf6" opacity="0.35"></circle><circle cx="652.7" cy="173.2" r="1.34" fill="#e8ecf6" opacity="0.31"></circle><circle cx="975.7" cy="52.5" r="1.18" fill="#e8ecf6" opacity="0.21"></circle><circle cx="41.1" cy="61.4" r="1.58" fill="#e8ecf6" opacity="0.54"></circle><circle cx="543.8" cy="205.1" r="0.78" fill="#e8ecf6" opacity="0.57"></circle><circle cx="415.3" cy="163.3" r="0.60" fill="#e8ecf6" opacity="0.58"></circle><circle cx="165.4" cy="145.0" r="0.65" fill="#e8ecf6" opacity="0.79"></circle><circle cx="391.3" cy="131.2" r="1.18" fill="#e8ecf6" opacity="0.58"></circle><circle cx="73.4" cy="143.7" r="0.41" fill="#e8ecf6" opacity="0.20"></circle><circle cx="377.0" cy="0.4" r="0.39" fill="#e8ecf6" opacity="0.21"></circle><circle cx="981.7" cy="98.0" r="0.81" fill="#e8ecf6" opacity="0.80"></circle><circle cx="736.7" cy="140.4" r="1.47" fill="#e8ecf6" opacity="0.16"></circle><circle cx="282.8" cy="214.4" r="0.38" fill="#e8ecf6" opacity="0.55"></circle><circle cx="741.8" cy="32.2" r="0.54" fill="#e8ecf6" opacity="0.33"></circle><circle cx="831.8" cy="80.0" r="0.75" fill="#e8ecf6" opacity="0.25"></circle><circle cx="669.2" cy="53.6" r="1.47" fill="#e8ecf6" opacity="0.29"></circle><circle cx="458.1" cy="80.5" r="1.23" fill="#e8ecf6" opacity="0.28"></circle><circle cx="1145.4" cy="109.3" r="0.41" fill="#e8ecf6" opacity="0.23"></circle><circle cx="1143.1" cy="104.6" r="0.63" fill="#e8ecf6" opacity="0.51"></circle><circle cx="917.5" cy="169.6" r="1.15" fill="#e8ecf6" opacity="0.42"></circle><circle cx="104.2" cy="154.9" r="1.33" fill="#e8ecf6" opacity="0.56"></circle><circle cx="131.1" cy="74.1" r="1.34" fill="#e8ecf6" opacity="0.34"></circle><circle cx="546.4" cy="6.0" r="1.17" fill="#e8ecf6" opacity="0.53"></circle><circle cx="854.9" cy="143.4" r="0.46" fill="#e8ecf6" opacity="0.35"></circle><circle cx="779.8" cy="108.8" r="0.55" fill="#e8ecf6" opacity="0.22"></circle>
</svg>